<svg width="167" height="40" viewBox="0 0 167 40" fill="none" xmlns="http://www.w3.org/2000/svg">
<path d="M70.5153 16.288C70.1313 15.584 69.6033 15.048 68.9313 14.68C68.2593 14.312 67.4753 14.128 66.5793 14.128C65.5873 14.128 64.7073 14.352 63.9393 14.8C63.1713 15.248 62.5713 15.888 62.1393 16.72C61.7073 17.552 61.4913 18.512 61.4913 19.6C61.4913 20.72 61.7073 21.696 62.1393 22.528C62.5873 23.36 63.2033 24 63.9873 24.448C64.7713 24.896 65.6833 25.12 66.7233 25.12C68.0033 25.12 69.0513 24.784 69.8673 24.112C70.6833 23.424 71.2193 22.472 71.4753 21.256H65.7153V18.688H74.7873V21.616C74.5633 22.784 74.0833 23.864 73.3473 24.856C72.6113 25.848 71.6593 26.648 70.4913 27.256C69.3393 27.848 68.0433 28.144 66.6033 28.144C64.9873 28.144 63.5233 27.784 62.2113 27.064C60.9153 26.328 59.8913 25.312 59.1393 24.016C58.4033 22.72 58.0353 21.248 58.0353 19.6C58.0353 17.952 58.4033 16.48 59.1393 15.184C59.8913 13.872 60.9153 12.856 62.2113 12.136C63.5233 11.4 64.9793 11.032 66.5793 11.032C68.4673 11.032 70.1073 11.496 71.4993 12.424C72.8913 13.336 73.8513 14.624 74.3793 16.288H70.5153ZM99.5039 14.512C101.136 14.512 102.448 15.016 103.44 16.024C104.448 17.016 104.952 18.408 104.952 20.2V28H101.592V20.656C101.592 19.616 101.328 18.824 100.8 18.28C100.272 17.72 99.5519 17.44 98.6399 17.44C97.7279 17.44 96.9999 17.72 96.4559 18.28C95.9279 18.824 95.6639 19.616 95.6639 20.656V28H92.3039V20.656C92.3039 19.616 92.0399 18.824 91.5119 18.28C90.9839 17.72 90.2639 17.44 89.3519 17.44C88.4239 17.44 87.6879 17.72 87.1439 18.28C86.6159 18.824 86.3519 19.616 86.3519 20.656V28H82.9919V14.704H86.3519V16.312C86.7839 15.752 87.3359 15.312 88.0079 14.992C88.6959 14.672 89.4479 14.512 90.2639 14.512C91.3039 14.512 92.2319 14.736 93.0479 15.184C93.8639 15.616 94.4959 16.24 94.9439 17.056C95.3759 16.288 95.9999 15.672 96.8159 15.208C97.6479 14.744 98.5439 14.512 99.5039 14.512ZM114.044 28.216C112.764 28.216 111.612 27.936 110.588 27.376C109.564 26.8 108.756 25.992 108.164 24.952C107.588 23.912 107.3 22.712 107.3 21.352C107.3 19.992 107.596 18.792 108.188 17.752C108.796 16.712 109.62 15.912 110.66 15.352C111.7 14.776 112.86 14.488 114.14 14.488C115.42 14.488 116.58 14.776 117.62 15.352C118.66 15.912 119.476 16.712 120.068 17.752C120.676 18.792 120.98 19.992 120.98 21.352C120.98 22.712 120.668 23.912 120.044 24.952C119.436 25.992 118.604 26.8 117.548 27.376C116.508 27.936 115.34 28.216 114.044 28.216ZM114.044 25.288C114.652 25.288 115.22 25.144 115.748 24.856C116.292 24.552 116.724 24.104 117.044 23.512C117.364 22.92 117.524 22.2 117.524 21.352C117.524 20.088 117.188 19.12 116.516 18.448C115.86 17.76 115.052 17.416 114.092 17.416C113.132 17.416 112.324 17.76 111.668 18.448C111.028 19.12 110.708 20.088 110.708 21.352C110.708 22.616 111.02 23.592 111.644 24.28C112.284 24.952 113.084 25.288 114.044 25.288ZM130.813 14.512C132.397 14.512 133.677 15.016 134.653 16.024C135.629 17.016 136.117 18.408 136.117 20.2V28H132.757V20.656C132.757 19.6 132.493 18.792 131.965 18.232C131.437 17.656 130.717 17.368 129.805 17.368C128.877 17.368 128.141 17.656 127.597 18.232C127.069 18.792 126.805 19.6 126.805 20.656V28H123.445V14.704H126.805V16.36C127.253 15.784 127.821 15.336 128.509 15.016C129.213 14.68 129.981 14.512 130.813 14.512ZM151.672 21.064C151.672 21.544 151.64 21.976 151.576 22.36H141.856C141.936 23.32 142.272 24.072 142.864 24.616C143.456 25.16 144.184 25.432 145.048 25.432C146.296 25.432 147.184 24.896 147.712 23.824H151.336C150.952 25.104 150.216 26.16 149.128 26.992C148.04 27.808 146.704 28.216 145.12 28.216C143.84 28.216 142.688 27.936 141.664 27.376C140.656 26.8 139.864 25.992 139.288 24.952C138.728 23.912 138.448 22.712 138.448 21.352C138.448 19.976 138.728 18.768 139.288 17.728C139.848 16.688 140.632 15.888 141.64 15.328C142.648 14.768 143.808 14.488 145.12 14.488C146.384 14.488 147.512 14.76 148.504 15.304C149.512 15.848 150.288 16.624 150.832 17.632C151.392 18.624 151.672 19.768 151.672 21.064ZM148.192 20.104C148.176 19.24 147.864 18.552 147.256 18.04C146.648 17.512 145.904 17.248 145.024 17.248C144.192 17.248 143.488 17.504 142.912 18.016C142.352 18.512 142.008 19.208 141.88 20.104H148.192ZM166.845 14.704L158.613 34.288H155.037L157.917 27.664L152.589 14.704H156.357L159.789 23.992L163.269 14.704H166.845Z" fill="white"/>
<path d="M34.1422 5.85781C30.3647 2.08031 25.3422 0 20 0C14.6578 0 9.63531 2.08031 5.85781 5.85781C2.08031 9.63531 0 14.6578 0 20C0 25.3422 2.08039 30.3646 5.85781 34.1422C9.63523 37.9198 14.6578 40 20 40C25.3422 40 30.3647 37.9197 34.1422 34.1422C37.9197 30.3647 40 25.3422 40 20C40 14.6578 37.9196 9.63539 34.1422 5.85781Z" fill="#33CC95"/>
<g clip-path="url(#clip0_35212_417)">
<path d="M20.5714 8V33.1429" stroke="white" stroke-width="2" stroke-linecap="round" stroke-linejoin="round"/>
<path d="M26.2857 12.5714H17.7143C16.6534 12.5714 15.636 12.9929 14.8859 13.743C14.1357 14.4931 13.7143 15.5106 13.7143 16.5714C13.7143 17.6323 14.1357 18.6497 14.8859 19.3999C15.636 20.15 16.6534 20.5714 17.7143 20.5714H23.4286C24.4894 20.5714 25.5069 20.9929 26.257 21.743C27.0072 22.4932 27.4286 23.5106 27.4286 24.5714C27.4286 25.6323 27.0072 26.6497 26.257 27.3999C25.5069 28.15 24.4894 28.5714 23.4286 28.5714H13.7143" stroke="white" stroke-width="2" stroke-linecap="round" stroke-linejoin="round"/>
</g>
<defs>
<clipPath id="clip0_35212_417">
<rect width="27.4286" height="27.4286" fill="white" transform="translate(6.85715 6.85714)"/>
</clipPath>
</defs>
</svg>
